<svg width="50" height="50" viewBox="0 0 50 50" xmlns="http://www.w3.org/2000/svg">
<rect width="50" height="50" fill="none"/>
<path d="M12.1876 35.6248C13.9584 34.2707 15.9376 33.203 18.1251 32.4217C20.3126 31.6405 22.6042 31.2498 25.0001 31.2498C27.3959 31.2498 29.6876 31.6405 31.8751 32.4217C34.0626 33.203 36.0417 34.2707 37.8126 35.6248C39.0279 34.2012 39.974 32.5866 40.6511 30.7811C41.3282 28.9755 41.6667 27.0484 41.6667 24.9998C41.6667 20.3818 40.0435 16.4495 36.797 13.203C33.5504 9.95643 29.6181 8.33317 25.0001 8.33317C20.382 8.33317 16.4497 9.95643 13.2032 13.203C9.95668 16.4495 8.33341 20.3818 8.33341 24.9998C8.33341 27.0484 8.67196 28.9755 9.34904 30.7811C10.0261 32.5866 10.9723 34.2012 12.1876 35.6248ZM25.0001 27.0832C22.9515 27.0832 21.224 26.38 19.8178 24.9738C18.4115 23.5675 17.7084 21.8401 17.7084 19.7915C17.7084 17.7429 18.4115 16.0155 19.8178 14.6092C21.224 13.203 22.9515 12.4998 25.0001 12.4998C27.0487 12.4998 28.7761 13.203 30.1824 14.6092C31.5886 16.0155 32.2917 17.7429 32.2917 19.7915C32.2917 21.8401 31.5886 23.5675 30.1824 24.9738C28.7761 26.38 27.0487 27.0832 25.0001 27.0832ZM25.0001 45.8332C22.1181 45.8332 19.4098 45.2863 16.8751 44.1925C14.3404 43.0988 12.1355 41.6144 10.2605 39.7394C8.3855 37.8644 6.90112 35.6596 5.80737 33.1248C4.71362 30.5901 4.16675 27.8818 4.16675 24.9998C4.16675 22.1179 4.71362 19.4096 5.80737 16.8748C6.90112 14.3401 8.3855 12.1353 10.2605 10.2603C12.1355 8.38525 14.3404 6.90088 16.8751 5.80713C19.4098 4.71338 22.1181 4.1665 25.0001 4.1665C27.882 4.1665 30.5904 4.71338 33.1251 5.80713C35.6598 6.90088 37.8647 8.38525 39.7397 10.2603C41.6147 12.1353 43.099 14.3401 44.1928 16.8748C45.2865 19.4096 45.8334 22.1179 45.8334 24.9998C45.8334 27.8818 45.2865 30.5901 44.1928 33.1248C43.099 35.6596 41.6147 37.8644 39.7397 39.7394C37.8647 41.6144 35.6598 43.0988 33.1251 44.1925C30.5904 45.2863 27.882 45.8332 25.0001 45.8332ZM25.0001 41.6665C26.8404 41.6665 28.5765 41.3974 30.2084 40.8592C31.8404 40.321 33.3334 39.5485 34.6876 38.5415C33.3334 37.5346 31.8404 36.762 30.2084 36.2238C28.5765 35.6856 26.8404 35.4165 25.0001 35.4165C23.1598 35.4165 21.4237 35.6856 19.7917 36.2238C18.1598 36.762 16.6667 37.5346 15.3126 38.5415C16.6667 39.5485 18.1598 40.321 19.7917 40.8592C21.4237 41.3974 23.1598 41.6665 25.0001 41.6665ZM25.0001 22.9165C25.9029 22.9165 26.6494 22.6214 27.2397 22.0311C27.8299 21.4408 28.1251 20.6943 28.1251 19.7915C28.1251 18.8887 27.8299 18.1422 27.2397 17.5519C26.6494 16.9616 25.9029 16.6665 25.0001 16.6665C24.0973 16.6665 23.3508 16.9616 22.7605 17.5519C22.1702 18.1422 21.8751 18.8887 21.8751 19.7915C21.8751 20.6943 22.1702 21.4408 22.7605 22.0311C23.3508 22.6214 24.0973 22.9165 25.0001 22.9165Z" fill="url(#paint0_linear_79_10)"/>
<defs>
<linearGradient id="paint0_linear_79_10" x1="25.0001" y1="4.1665" x2="25.0001" y2="45.8332" gradientUnits="userSpaceOnUse">
<stop stopColor="#FF5C00"/>
<stop offset="1" stopColor="#FA00FF"/>
</linearGradient>
</defs>
</svg>