<svg width="42" height="42" viewBox="0 0 42 42" fill="none" xmlns="http://www.w3.org/2000/svg">
<path d="M8.18758 31.6248C9.95842 30.2707 11.9376 29.203 14.1251 28.4217C16.3126 27.6405 18.6042 27.2498 21.0001 27.2498C23.3959 27.2498 25.6876 27.6405 27.8751 28.4217C30.0626 29.203 32.0417 30.2707 33.8126 31.6248C35.0279 30.2012 35.974 28.5866 36.6511 26.7811C37.3282 24.9755 37.6667 23.0484 37.6667 20.9998C37.6667 16.3818 36.0435 12.4495 32.797 9.20296C29.5504 5.95643 25.6181 4.33317 21.0001 4.33317C16.382 4.33317 12.4497 5.95643 9.20321 9.20296C5.95668 12.4495 4.33341 16.3818 4.33341 20.9998C4.33341 23.0484 4.67196 24.9755 5.34904 26.7811C6.02612 28.5866 6.9723 30.2012 8.18758 31.6248ZM21.0001 23.0832C18.9515 23.0832 17.224 22.38 15.8178 20.9738C14.4115 19.5675 13.7084 17.8401 13.7084 15.7915C13.7084 13.7429 14.4115 12.0155 15.8178 10.6092C17.224 9.20296 18.9515 8.49984 21.0001 8.49984C23.0487 8.49984 24.7761 9.20296 26.1824 10.6092C27.5886 12.0155 28.2917 13.7429 28.2917 15.7915C28.2917 17.8401 27.5886 19.5675 26.1824 20.9738C24.7761 22.38 23.0487 23.0832 21.0001 23.0832ZM21.0001 41.8332C18.1181 41.8332 15.4098 41.2863 12.8751 40.1925C10.3404 39.0988 8.1355 37.6144 6.2605 35.7394C4.3855 33.8644 2.90112 31.6596 1.80737 29.1248C0.713623 26.5901 0.166748 23.8818 0.166748 20.9998C0.166748 18.1179 0.713623 15.4096 1.80737 12.8748C2.90112 10.3401 4.3855 8.13525 6.2605 6.26025C8.1355 4.38525 10.3404 2.90088 12.8751 1.80713C15.4098 0.713379 18.1181 0.166504 21.0001 0.166504C23.882 0.166504 26.5904 0.713379 29.1251 1.80713C31.6598 2.90088 33.8647 4.38525 35.7397 6.26025C37.6147 8.13525 39.099 10.3401 40.1928 12.8748C41.2865 15.4096 41.8334 18.1179 41.8334 20.9998C41.8334 23.8818 41.2865 26.5901 40.1928 29.1248C39.099 31.6596 37.6147 33.8644 35.7397 35.7394C33.8647 37.6144 31.6598 39.0988 29.1251 40.1925C26.5904 41.2863 23.882 41.8332 21.0001 41.8332ZM21.0001 37.6665C22.8404 37.6665 24.5765 37.3974 26.2084 36.8592C27.8404 36.321 29.3334 35.5485 30.6876 34.5415C29.3334 33.5346 27.8404 32.762 26.2084 32.2238C24.5765 31.6856 22.8404 31.4165 21.0001 31.4165C19.1598 31.4165 17.4237 31.6856 15.7917 32.2238C14.1598 32.762 12.6667 33.5346 11.3126 34.5415C12.6667 35.5485 14.1598 36.321 15.7917 36.8592C17.4237 37.3974 19.1598 37.6665 21.0001 37.6665ZM21.0001 18.9165C21.9029 18.9165 22.6494 18.6214 23.2397 18.0311C23.8299 17.4408 24.1251 16.6943 24.1251 15.7915C24.1251 14.8887 23.8299 14.1422 23.2397 13.5519C22.6494 12.9616 21.9029 12.6665 21.0001 12.6665C20.0973 12.6665 19.3508 12.9616 18.7605 13.5519C18.1702 14.1422 17.8751 14.8887 17.8751 15.7915C17.8751 16.6943 18.1702 17.4408 18.7605 18.0311C19.3508 18.6214 20.0973 18.9165 21.0001 18.9165Z" fill="url(#paint0_linear_79_11)"/>
<defs>
<linearGradient id="paint0_linear_79_11" x1="21.0001" y1="0.166504" x2="21.0001" y2="41.8332" gradientUnits="userSpaceOnUse">
<stop stop-color="#FF5C00"/>
<stop offset="1" stop-color="#FA00FF"/>
</linearGradient>
</defs>
</svg>